<?xml version="1.0" ?><svg viewBox="0 0 32 32" xmlns="http://www.w3.org/2000/svg"><title/><g data-name="Layer 2" id="Layer_2"><path d="M28.5,14H28V4.1A3.1,3.1,0,0,0,24.9,1H22.4A2.39,2.39,0,0,0,20,3.4v.74A4,4,0,0,0,17,8V9a1,1,0,0,0,1,1h6a1,1,0,0,0,1-1V8a4,4,0,0,0-3-3.86V3.4a.4.4,0,0,1,.4-.4h2.5A1.11,1.11,0,0,1,26,4.1V14H3.5A2.49,2.49,0,0,0,2,18.49v3a6.58,6.58,0,0,0,4.38,6.18L5.17,29.45a1,1,0,0,0,.28,1.38A.94.94,0,0,0,6,31a1,1,0,0,0,.83-.45L8.54,28H23.46l1.71,2.55A1,1,0,0,0,26,31a.94.94,0,0,0,.55-.17,1,1,0,0,0,.28-1.38l-1.21-1.83A6.58,6.58,0,0,0,30,21.44v-3A2.49,2.49,0,0,0,28.5,14ZM23,8H19a2,2,0,0,1,4,0ZM3.5,16h25a.5.5,0,0,1,0,1H3.5a.5.5,0,0,1,0-1ZM28,21.44A4.57,4.57,0,0,1,23.44,26H8.56A4.57,4.57,0,0,1,4,21.44V19H28Z"/></g></svg>