<?xml version="1.0" ?><svg viewBox="0 0 32 32" xmlns="http://www.w3.org/2000/svg"><title/><g data-name="Layer 2" id="Layer_2"><path d="M26.63,5H5.38A4.38,4.38,0,0,0,1,9.38V30a1,1,0,0,0,1,1H6a1,1,0,0,0,1-.76L7.78,27H24.22L25,30.24A1,1,0,0,0,26,31h4a1,1,0,0,0,1-1V9.38A4.38,4.38,0,0,0,26.63,5ZM7,25H3V20H29v5H7ZM8,14.54V13.46A.47.47,0,0,1,8.46,13h4.08a.47.47,0,0,1,.46.46v1.08a.47.47,0,0,1-.46.46H8.46A.47.47,0,0,1,8,14.54ZM6.31,17H25.69a.31.31,0,0,1,.31.31V18H6v-.69A.31.31,0,0,1,6.31,17ZM19,14.54V13.46a.47.47,0,0,1,.46-.46h4.08a.47.47,0,0,1,.46.46v1.08a.47.47,0,0,1-.46.46H19.46A.47.47,0,0,1,19,14.54ZM3,9.38A2.39,2.39,0,0,1,5.38,7H26.63A2.38,2.38,0,0,1,29,9.38V18H28v-.69A2.3,2.3,0,0,0,26,15a2.63,2.63,0,0,0,.05-.49V13.46A2.46,2.46,0,0,0,23.54,11H19.46A2.46,2.46,0,0,0,17,13.46v1.08a2.31,2.31,0,0,0,.05.46H15a2.31,2.31,0,0,0,.05-.46V13.46A2.46,2.46,0,0,0,12.54,11H8.46A2.46,2.46,0,0,0,6,13.46v1.08a2.63,2.63,0,0,0,0,.49,2.3,2.3,0,0,0-2,2.28V18H3ZM5.22,29H3V27H5.72ZM29,29H26.78l-.5-2H29Z"/></g></svg>